# Blender v2.74 (sub 0) OBJ File: 'mushroom.blend'
# www.blender.org
o mushroom_Cylinder
v 0.608359 2.109969 0.833550
v 0.984346 2.109969 0.316049
v 0.984346 2.109969 -0.323618
v 0.000000 2.109969 -1.038788
v -0.837787 0.000000 -0.275998
v 0.608359 2.179698 0.833550
v -0.000000 2.179698 1.031218
v -0.608360 2.179698 0.833550
v -0.980766 2.141649 0.344458
v -0.980766 2.141649 -0.295209
v 0.608360 2.109969 -0.841120
v 1.509958 2.593344 2.074495
v -0.000000 2.593344 2.565110
v -1.509959 2.593344 2.074495
v -2.443164 2.593344 0.790048
v -2.443164 2.593344 -0.797617
v -0.608359 0.171361 -0.841120
v 0.000000 2.180014 -1.038788
v 0.608360 2.180014 -0.841120
v 0.984346 2.180014 -0.323618
v 0.984346 2.180014 0.316049
v 0.608359 2.180014 0.833550
v -0.000000 2.109969 1.031218
v -0.608360 2.109969 0.833550
v -0.984346 2.109969 0.316049
v -0.984346 2.180014 -0.323618
v -0.608359 2.180014 -0.841120
v 1.509958 2.593344 -2.082064
v 2.443164 2.593344 -0.797617
v 2.443164 2.593344 0.790048
v 1.509958 2.593344 2.074495
v -1.509959 2.593344 2.074495
v -2.443164 2.593344 0.790048
v -2.443164 2.593344 -0.797617
v -1.509957 2.593344 -2.082064
v -0.000000 2.593344 -2.572679
v -0.000000 2.109969 1.031218
v -0.608360 2.109969 0.833550
v -0.984346 2.109969 0.316049
v -0.984346 2.109969 -0.323618
v -0.608359 2.109969 -0.841120
v 0.000000 0.171361 -1.038788
v -0.984346 0.171361 -0.323618
v 0.000000 2.180014 -1.038788
v -0.984346 0.171361 0.316049
v -0.608360 0.171361 0.833550
v -0.000000 0.171361 1.031218
v 0.608359 0.171361 0.833550
v 0.984346 0.171361 0.316049
v 0.984346 0.171361 -0.323618
v 0.608360 0.171361 -0.841120
v -0.517781 0.000000 -0.716449
v 0.000000 0.000000 -0.884687
v 0.000000 0.000000 0.000000
v -0.837787 0.000000 0.268429
v -0.517781 0.000000 0.708880
v -0.000000 0.000000 0.880902
v 0.517781 0.000000 0.708880
v 0.837787 0.000000 0.268429
v 0.837787 0.000000 -0.275998
v 0.517781 0.000000 -0.716449
v 0.608360 2.180014 -0.841120
v 0.984346 2.180014 -0.323618
v 0.984346 2.180014 0.316049
v 0.608359 2.180014 0.833550
v -0.984346 2.180014 -0.323618
v -0.608359 2.180014 -0.841120
v 0.000000 5.109969 -0.003785
v 0.000000 5.109969 -1.078721
v 0.631831 5.109969 -0.873426
v 1.022324 5.109969 -0.335958
v 1.022324 5.109969 0.328389
v 0.631831 5.109969 0.865857
v 0.000000 5.109969 1.071151
v -0.631831 5.109969 0.865857
v -1.022325 5.109969 0.328389
v -1.022325 5.109969 -0.335958
v -0.631830 5.109969 -0.873426
v -0.000000 4.602527 -1.932710
v 1.133794 4.602527 -1.564318
v 1.834517 4.602527 -0.599855
v 1.834517 4.602527 0.592286
v 1.133794 4.602527 1.556749
v -0.000000 4.602527 1.925141
v -1.133794 4.602527 1.556749
v -1.834517 4.602527 0.592286
v -1.834517 4.602527 -0.599856
v -1.133793 4.602527 -1.564319
v 1.509958 2.593344 -2.082064
v 2.443164 2.593344 -0.797617
v 2.443164 2.593344 0.790048
v 1.509958 2.593344 2.074495
v -0.000000 2.593344 2.565110
v -1.509959 2.593344 2.074495
v -2.443164 2.593344 0.790048
v -2.443164 2.593344 -0.797617
v -1.509957 2.593344 -2.082064
v -0.000000 2.593344 -2.572679
v -0.000000 3.589154 -2.436270
v 1.429779 3.589154 -1.971706
v 2.313431 3.589154 -0.755464
v 2.313431 3.589154 0.747895
v 1.429779 3.589154 1.964137
v -0.000000 3.589154 2.428700
v -1.429779 3.589154 1.964137
v -2.313431 3.589154 0.747895
v -2.313431 3.589154 -0.755464
v -1.429778 3.589154 -1.971707
v 0.796930 3.505702 -0.804596
v 1.509958 2.593344 -2.082064
v 2.443164 2.593344 -0.797617
v 2.443164 2.593344 0.790048
v 1.509958 2.593344 2.074495
v -1.509959 2.593344 2.074495
v -2.443164 2.593344 0.790048
v -2.443164 2.593344 -0.797617
v -1.509957 2.593344 -2.082064
v -0.000000 2.593344 -2.572679
v 0.000000 0.000000 0.000000
vt 0.056702 0.512723
vt 0.056928 0.488274
vt 0.088740 0.493603
vt 0.343549 0.513237
vt 0.343223 0.488711
vt 0.375099 0.488274
vt 0.088046 0.518985
vt 0.120417 0.502663
vt 0.119512 0.529630
vt 0.152151 0.511994
vt 0.151374 0.540593
vt 0.184138 0.518093
vt 0.216510 0.548199
vt 0.183797 0.547685
vt 0.216270 0.518467
vt 0.248239 0.513138
vt 0.346586 0.819709
vt 0.374873 0.512723
vt 0.054434 0.819196
vt 0.080933 0.825458
vt 0.109225 0.836103
vt 0.141247 0.847065
vt 0.178912 0.854158
vt 0.220269 0.854671
vt 0.248955 0.541937
vt 0.217917 0.957375
vt 0.181863 0.956101
vt 0.178692 0.865181
vt 0.147141 0.938497
vt 0.258651 0.848410
vt 0.280819 0.531292
vt 0.114896 0.911288
vt 0.084699 0.884866
vt 0.081841 0.830961
vt 0.291308 0.837765
vt 0.312247 0.520329
vt 0.319946 0.826802
vt 0.320191 0.837875
vt 0.291677 0.848838
vt 0.259045 0.859483
vt 0.220441 0.865745
vt 0.080710 0.836531
vt 0.054366 0.830269
vt 0.346677 0.830783
vt 0.372605 0.819196
vt 0.345056 0.870599
vt 0.315896 0.888203
vt 0.285487 0.915412
vt 0.252921 0.941834
vt 0.055634 0.869324
vt 0.372537 0.830269
vt 0.373804 0.869324
vt 0.279913 0.504078
vt 0.311492 0.494747
vt 0.361334 0.344348
vt 0.043163 0.344348
vt 0.751000 0.254063
vt 0.783213 0.227380
vt 0.792745 0.251410
vt 0.814918 0.203207
vt 0.761377 0.213541
vt 0.772819 0.175350
vt 0.735577 0.215180
vt 0.722385 0.177558
vt 0.715668 0.231671
vt 0.709255 0.256715
vt 0.669397 0.257636
vt 0.718786 0.280746
vt 0.740622 0.294584
vt 0.687082 0.304918
vt 0.766422 0.292945
vt 0.779615 0.330567
vt 0.786331 0.276454
vt 0.819118 0.299137
vt 0.832603 0.250490
vt 0.889838 0.251991
vt 0.864540 0.333994
vt 0.729181 0.332776
vt 0.795874 0.385466
vt 0.710067 0.386746
vt 0.639895 0.337346
vt 0.682882 0.208988
vt 0.612161 0.256134
vt 0.637459 0.174131
vt 0.706126 0.122660
vt 0.791933 0.121379
vt 0.862105 0.170779
vt 0.963135 0.254063
vt 0.816553 0.052310
vt 0.685447 0.052310
vt 0.579379 0.129373
vt 0.538865 0.254063
vt 0.685447 0.455815
vt 0.816553 0.455815
vt 0.140846 0.858089
vt 0.110408 0.841606
vt 0.922621 0.129373
vt 0.579379 0.378752
vt 0.922621 0.378752
vn -0.614800 -0.650000 -0.446700
vn -0.234800 -0.650000 -0.722800
vn -0.760000 -0.650000 0.000000
vn -0.614800 -0.650000 0.446700
vn -0.239400 -0.650800 0.720600
vn 0.237300 -0.640600 0.730300
vn 0.614800 -0.650000 0.446700
vn -0.309000 0.000000 -0.951100
vn -0.809000 0.000000 -0.587800
vn -1.000000 0.000000 0.000000
vn -0.809000 0.000000 0.587800
vn -0.309000 0.000000 0.951100
vn 0.309000 0.000000 0.951100
vn 0.809000 0.000000 0.587800
vn 0.084300 -0.962100 0.259400
vn -0.084300 -0.962100 0.259400
vn 1.000000 0.000000 0.000000
vn -0.295100 -0.955500 0.000000
vn 0.809000 0.000000 -0.587800
vn 0.309000 0.000000 -0.951100
vn 0.000000 0.000000 1.000000
vn 0.084200 -0.962100 -0.259300
vn 0.220500 -0.962100 -0.160200
vn 0.272600 -0.962100 0.000000
vn 0.220500 -0.962100 0.160200
vn -0.254500 -0.949200 0.184900
vn -0.220500 -0.962100 -0.160200
vn -0.084200 -0.962100 -0.259300
vn 0.760000 -0.650000 0.000000
vn 0.614800 -0.650000 -0.446700
vn 0.234800 -0.650000 -0.722800
vn 0.000000 -1.000000 0.000000
vn 0.000000 1.000000 0.000000
vn 0.163700 0.848100 -0.503900
vn 0.428700 0.848100 -0.311400
vn 0.529900 0.848100 0.000000
vn 0.428700 0.848100 0.311400
vn 0.163700 0.848100 0.503900
vn -0.163700 0.848100 0.503900
vn -0.428700 0.848100 0.311400
vn -0.529900 0.848100 0.000000
vn -0.428700 0.848100 -0.311400
vn -0.163700 0.848100 -0.503900
vn -0.279400 0.427300 -0.859900
vn -0.731400 0.427300 -0.531400
vn -0.904100 0.427300 0.000000
vn -0.731400 0.427300 0.531400
vn -0.279400 0.427300 0.859900
vn 0.279400 0.427300 0.859900
vn 0.731400 0.427300 0.531400
vn 0.904100 0.427300 0.000000
vn 0.731400 0.427300 -0.531400
vn 0.279400 0.427300 -0.859900
vn 0.306400 0.129200 -0.943100
vn 0.802200 0.129200 -0.582900
vn 0.991600 0.129200 0.000000
vn 0.802200 0.129200 0.582900
vn 0.306400 0.129200 0.943100
vn -0.306400 0.129200 0.943100
vn -0.802200 0.129200 0.582900
vn -0.991600 0.129200 0.000000
vn -0.802200 0.129200 -0.582900
vn -0.306400 0.129200 -0.943100
vn -0.237300 -0.640600 0.730300
vn 0.239400 -0.650800 0.720600
s off
f 17/1/1 52/2/1 5/3/1
f 42/4/2 53/5/2 52/6/2
f 43/7/3 5/3/3 55/8/3
f 45/9/4 55/8/4 56/10/4
f 46/11/5 56/10/5 57/12/5
f 48/13/6 47/14/6 57/12/6
f 48/13/7 58/15/7 59/16/7
f 4/17/8 42/4/8 17/18/8
f 41/19/9 17/1/9 43/7/9
f 40/20/10 43/7/10 45/9/10
f 39/21/11 45/9/11 46/11/11
f 38/22/12 46/11/12 47/14/12
f 37/23/13 47/14/13 48/13/13
f 1/24/14 48/13/14 49/25/14
f 12/26/15 13/27/15 7/28/15
f 7/28/16 13/27/16 14/29/16
f 2/30/17 49/25/17 50/31/17
f 15/32/18 16/33/18 10/34/18
f 3/35/19 50/31/19 51/36/19
f 11/37/20 51/36/20 42/4/20
f 19/38/20 11/37/20 4/17/20
f 20/39/19 3/35/19 11/37/19
f 21/40/17 2/30/17 3/35/17
f 22/41/14 1/24/14 2/30/14
f 22/41/21 23/23/21 37/23/21
f 23/23/21 24/22/21 38/22/21
f 24/22/21 25/21/21 39/21/21
f 25/21/10 26/42/10 40/20/10
f 27/43/9 41/19/9 40/20/9
f 18/44/8 4/17/8 41/45/8
f 18/44/22 36/46/22 28/47/22
f 28/47/23 29/48/23 20/39/23
f 29/48/24 30/49/24 21/40/24
f 30/49/25 31/26/25 22/41/25
f 32/29/26 33/32/26 25/21/26
f 26/42/27 34/33/27 35/50/27
f 27/51/28 35/52/28 36/46/28
f 49/25/29 59/16/29 60/53/29
f 50/31/30 60/53/30 61/54/30
f 51/36/31 61/54/31 53/5/31
f 54/55/32 59/16/32 58/15/32
f 54/55/32 58/15/32 57/12/32
f 54/56/32 57/12/32 56/10/32
f 54/56/32 56/10/32 55/8/32
f 54/56/32 55/8/32 5/3/32
f 54/56/32 5/3/32 52/2/32
f 54/55/32 52/6/32 53/5/32
f 54/55/32 60/53/32 59/16/32
f 54/55/32 61/54/32 60/53/32
f 54/55/32 53/5/32 61/54/32
f 68/57/33 70/58/33 69/59/33
f 69/59/34 70/58/34 80/60/34
f 68/57/33 71/61/33 70/58/33
f 70/58/35 71/61/35 81/62/35
f 68/57/33 72/63/33 71/61/33
f 71/61/36 72/63/36 82/64/36
f 68/57/33 73/65/33 72/63/33
f 82/64/37 72/63/37 73/65/37
f 68/57/33 74/66/33 73/65/33
f 73/65/38 74/66/38 84/67/38
f 68/57/33 75/68/33 74/66/33
f 84/67/39 74/66/39 75/68/39
f 68/57/33 76/69/33 75/68/33
f 85/70/40 75/68/40 76/69/40
f 68/57/33 77/71/33 76/69/33
f 76/69/41 77/71/41 87/72/41
f 68/57/33 78/73/33 77/71/33
f 77/71/42 78/73/42 88/74/42
f 68/57/33 69/59/33 78/73/33
f 78/73/43 69/59/43 79/75/43
f 88/74/44 79/75/44 99/76/44
f 87/72/45 88/74/45 108/77/45
f 86/78/46 87/72/46 107/79/46
f 85/70/47 86/78/47 106/80/47
f 84/67/48 85/70/48 105/81/48
f 83/82/49 84/67/49 104/83/49
f 82/64/50 83/82/50 103/84/50
f 81/62/51 82/64/51 102/85/51
f 80/60/52 81/62/52 101/86/52
f 79/75/53 80/60/53 100/87/53
f 98/88/54 99/76/54 100/87/54
f 100/87/55 101/86/55 90/89/55
f 101/86/56 102/85/56 91/90/56
f 102/85/57 103/84/57 92/91/57
f 103/84/58 104/83/58 93/92/58
f 93/92/59 104/83/59 105/81/59
f 105/81/60 106/80/60 95/93/60
f 106/80/61 107/79/61 96/94/61
f 96/94/62 107/79/62 108/77/62
f 108/77/63 99/76/63 98/88/63
f 43/7/1 17/1/1 5/3/1
f 17/18/2 42/4/2 52/6/2
f 45/9/3 43/7/3 55/8/3
f 46/11/4 45/9/4 56/10/4
f 47/14/64 46/11/64 57/12/64
f 58/15/65 48/13/65 57/12/65
f 49/25/7 48/13/7 59/16/7
f 41/45/8 4/17/8 17/18/8
f 40/20/9 41/19/9 43/7/9
f 39/21/10 40/20/10 45/9/10
f 38/22/11 39/21/11 46/11/11
f 37/23/12 38/22/12 47/14/12
f 1/24/13 37/23/13 48/13/13
f 2/30/14 1/24/14 49/25/14
f 6/41/15 12/26/15 7/28/15
f 8/95/16 7/28/16 14/29/16
f 3/35/17 2/30/17 50/31/17
f 9/96/18 15/32/18 10/34/18
f 11/37/19 3/35/19 51/36/19
f 4/17/20 11/37/20 42/4/20
f 18/44/20 19/38/20 4/17/20
f 19/38/19 20/39/19 11/37/19
f 20/39/17 21/40/17 3/35/17
f 21/40/14 22/41/14 2/30/14
f 1/24/13 22/41/13 37/23/13
f 37/23/21 23/23/21 38/22/21
f 38/22/21 24/22/21 39/21/21
f 39/21/21 25/21/21 40/20/21
f 26/42/9 27/43/9 40/20/9
f 27/51/8 18/44/8 41/45/8
f 19/38/22 18/44/22 28/47/22
f 19/38/23 28/47/23 20/39/23
f 20/39/24 29/48/24 21/40/24
f 21/40/25 30/49/25 22/41/25
f 24/22/26 32/29/26 25/21/26
f 27/43/27 26/42/27 35/50/27
f 18/44/28 27/51/28 36/46/28
f 50/31/29 49/25/29 60/53/29
f 51/36/30 50/31/30 61/54/30
f 42/4/31 51/36/31 53/5/31
f 79/75/34 69/59/34 80/60/34
f 80/60/35 70/58/35 81/62/35
f 81/62/36 71/61/36 82/64/36
f 83/82/37 82/64/37 73/65/37
f 83/82/38 73/65/38 84/67/38
f 85/70/39 84/67/39 75/68/39
f 86/78/40 85/70/40 76/69/40
f 86/78/41 76/69/41 87/72/41
f 87/72/42 77/71/42 88/74/42
f 88/74/43 78/73/43 79/75/43
f 108/77/44 88/74/44 99/76/44
f 107/79/45 87/72/45 108/77/45
f 106/80/46 86/78/46 107/79/46
f 105/81/47 85/70/47 106/80/47
f 104/83/48 84/67/48 105/81/48
f 103/84/49 83/82/49 104/83/49
f 102/85/50 82/64/50 103/84/50
f 101/86/51 81/62/51 102/85/51
f 100/87/52 80/60/52 101/86/52
f 99/76/53 79/75/53 100/87/53
f 89/97/54 98/88/54 100/87/54
f 89/97/55 100/87/55 90/89/55
f 90/89/56 101/86/56 91/90/56
f 91/90/57 102/85/57 92/91/57
f 92/91/58 103/84/58 93/92/58
f 94/98/59 93/92/59 105/81/59
f 94/98/60 105/81/60 95/93/60
f 95/93/61 106/80/61 96/94/61
f 97/99/62 96/94/62 108/77/62
f 97/99/63 108/77/63 98/88/63
